<?xml version="1.0" encoding="utf-8"?>
<!-- Generator: Adobe Illustrator 27.5.0, SVG Export Plug-In . SVG Version: 6.00 Build 0)  -->
<svg version="1.1" xmlns="http://www.w3.org/2000/svg" xmlns:xlink="http://www.w3.org/1999/xlink" x="0px" y="0px"
	 viewBox="0 0 2500 2500" style="enable-background:new 0 0 2500 2500;" xml:space="preserve">
<g id="BG">
	<rect style="fill:#AAE0FF;" width="2500" height="2500"/>
</g>
<g id="data">
	<g>
		<path id="circle" style="fill:#2E77E6;" d="M1252.503,1732.283c-2.964,0-5.394-2.376-5.448-5.352
			c-0.054-3.01,2.342-5.494,5.351-5.548c5.384-0.097,10.827-0.262,16.178-0.488c3-0.114,5.549,2.208,5.676,5.215
			c0.127,3.008-2.208,5.549-5.215,5.676c-5.438,0.23-10.97,0.397-16.441,0.495
			C1252.57,1732.283,1252.537,1732.283,1252.503,1732.283z M1220.728,1732.106c-0.054,0-0.108-0.001-0.162-0.003
			c-5.479-0.16-11.019-0.389-16.465-0.682c-3.006-0.161-5.312-2.728-5.15-5.734c0.161-3.006,2.743-5.311,5.734-5.151
			c5.358,0.287,10.808,0.513,16.199,0.671c3.009,0.088,5.377,2.599,5.289,5.607
			C1226.087,1729.769,1223.664,1732.106,1220.728,1732.106z M1300.516,1729.694c-2.789,0-5.167-2.129-5.422-4.961
			c-0.271-2.998,1.94-5.647,4.939-5.917c5.362-0.484,10.788-1.041,16.127-1.655c2.991-0.344,5.694,1.801,6.038,4.791
			c0.344,2.991-1.801,5.694-4.791,6.038c-5.427,0.625-10.943,1.191-16.395,1.682
			C1300.845,1729.687,1300.68,1729.694,1300.516,1729.694z M1172.719,1728.975c-0.184,0-0.37-0.009-0.558-0.029
			c-5.445-0.553-10.954-1.182-16.375-1.868c-2.986-0.378-5.1-3.105-4.722-6.092c0.377-2.986,3.104-5.104,6.092-4.722
			c5.332,0.675,10.752,1.293,16.107,1.837c2.995,0.304,5.176,2.979,4.872,5.973
			C1177.849,1726.881,1175.48,1728.975,1172.719,1728.975z M1348.248,1723.64c-2.622,0-4.934-1.897-5.372-4.569
			c-0.487-2.97,1.526-5.773,4.496-6.261c5.32-0.873,10.692-1.822,15.964-2.823c2.96-0.563,5.81,1.382,6.371,4.339
			c0.561,2.957-1.382,5.81-4.339,6.37c-5.361,1.016-10.821,1.982-16.231,2.87C1348.838,1723.616,1348.541,1723.64,1348.248,1723.64z
			 M1125.057,1722.375c-0.314,0-0.631-0.027-0.95-0.083c-5.396-0.949-10.846-1.977-16.197-3.056
			c-2.951-0.595-4.861-3.469-4.266-6.42c0.595-2.952,3.477-4.861,6.42-4.266c5.263,1.061,10.624,2.072,15.931,3.006
			c2.965,0.521,4.945,3.347,4.424,6.312C1129.954,1720.514,1127.653,1722.375,1125.057,1722.375z M1395.415,1714.122
			c-2.462,0-4.695-1.68-5.295-4.179c-0.703-2.927,1.1-5.869,4.027-6.572c5.232-1.257,10.52-2.597,15.714-3.982
			c2.908-0.776,5.894,0.953,6.67,3.861c0.776,2.908-0.953,5.895-3.861,6.67c-5.281,1.409-10.657,2.771-15.977,4.049
			C1396.265,1714.073,1395.836,1714.122,1395.415,1714.122z M1078,1712.317c-0.442,0-0.89-0.054-1.337-0.167
			c-5.295-1.336-10.656-2.761-15.931-4.232c-2.899-0.809-4.594-3.815-3.785-6.714c0.809-2.899,3.816-4.594,6.714-3.785
			c5.189,1.448,10.461,2.848,15.669,4.163c2.918,0.736,4.687,3.7,3.951,6.618C1082.658,1710.671,1080.438,1712.317,1078,1712.317z
			 M1441.762,1701.177c-2.309,0-4.452-1.478-5.191-3.794c-0.915-2.868,0.667-5.934,3.535-6.849
			c5.114-1.632,10.288-3.356,15.38-5.123c2.843-0.985,5.949,0.519,6.936,3.362c0.987,2.844-0.519,5.95-3.363,6.936
			c-5.177,1.796-10.439,3.548-15.639,5.208C1442.87,1701.094,1442.311,1701.177,1441.762,1701.177z M1031.804,1698.842
			c-0.569,0-1.148-0.089-1.717-0.279c-5.218-1.732-10.477-3.552-15.633-5.407c-2.832-1.02-4.301-4.143-3.281-6.975
			c1.02-2.833,4.143-4.297,6.975-3.282c5.069,1.826,10.242,3.615,15.373,5.318c2.857,0.948,4.404,4.033,3.456,6.89
			C1036.217,1697.394,1034.089,1698.842,1031.804,1698.842z M1487.037,1684.872c-2.16,0-4.204-1.292-5.059-3.418
			c-1.123-2.792,0.23-5.967,3.023-7.09c4.967-1.998,9.985-4.088,14.912-6.213c2.764-1.193,5.971,0.082,7.163,2.846
			c1.192,2.764-0.083,5.971-2.847,7.164c-5.01,2.16-10.111,4.285-15.162,6.317
			C1488.403,1684.745,1487.714,1684.872,1487.037,1684.872z M986.603,1681.969c-0.697,0-1.406-0.135-2.09-0.419
			c-5.057-2.103-10.165-4.302-15.181-6.535c-2.749-1.224-3.986-4.446-2.762-7.196c1.224-2.75,4.444-3.988,7.196-2.763
			c4.933,2.197,9.956,4.36,14.931,6.428c2.779,1.156,4.095,4.346,2.94,7.125C990.767,1680.704,988.74,1681.969,986.603,1681.969z
			 M1530.888,1665.35c-2.016,0-3.953-1.123-4.899-3.054c-1.324-2.703-0.206-5.968,2.497-7.292c4.829-2.365,9.685-4.818,14.432-7.29
			c2.67-1.388,5.961-0.353,7.352,2.317c1.39,2.67,0.353,5.961-2.317,7.352c-4.827,2.513-9.763,5.006-14.672,7.411
			C1532.51,1665.172,1531.693,1665.35,1530.888,1665.35z M942.787,1661.839c-0.826,0-1.663-0.188-2.451-0.586
			c-4.893-2.469-9.823-5.034-14.652-7.623c-2.653-1.422-3.651-4.726-2.229-7.378c1.423-2.653,4.725-3.651,7.378-2.228
			c4.751,2.546,9.599,5.069,14.413,7.497c2.687,1.356,3.767,4.634,2.411,7.321C946.699,1660.743,944.779,1661.839,942.787,1661.839z
			 M1573.225,1642.673c-1.875,0-3.699-0.968-4.713-2.704c-1.517-2.6-0.639-5.937,1.961-7.455c4.642-2.708,9.31-5.509,13.875-8.326
			c2.562-1.58,5.92-0.784,7.5,1.777c1.581,2.562,0.785,5.92-1.776,7.5c-4.641,2.864-9.386,5.711-14.105,8.464
			C1575.103,1642.433,1574.157,1642.673,1573.225,1642.673z M900.583,1638.572c-0.954,0-1.921-0.251-2.799-0.777
			c-4.704-2.822-9.43-5.737-14.047-8.664c-2.543-1.612-3.297-4.98-1.685-7.522c1.613-2.542,4.98-3.296,7.522-1.685
			c4.542,2.879,9.191,5.747,13.819,8.523c2.581,1.549,3.418,4.897,1.87,7.478C904.24,1637.629,902.434,1638.572,900.583,1638.572z
			 M1613.826,1616.966c-1.737,0-3.445-0.829-4.501-2.37c-1.701-2.483-1.068-5.875,1.415-7.577c4.426-3.033,8.881-6.167,13.242-9.316
			c2.441-1.762,5.847-1.211,7.609,1.229c1.762,2.441,1.212,5.847-1.229,7.609c-4.433,3.2-8.962,6.387-13.461,9.469
			C1615.96,1616.656,1614.887,1616.966,1613.826,1616.966z M860.202,1612.306c-1.083,0-2.178-0.322-3.131-0.993
			c-4.475-3.148-8.975-6.397-13.374-9.658c-2.418-1.792-2.926-5.205-1.134-7.624c1.791-2.418,5.205-2.927,7.624-1.134
			c4.328,3.206,8.754,6.403,13.156,9.5c2.463,1.732,3.054,5.132,1.322,7.594C863.603,1611.499,861.916,1612.306,860.202,1612.306z
			 M1652.473,1588.37c-1.602,0-3.189-0.703-4.265-2.052c-1.876-2.353-1.49-5.783,0.863-7.66c4.21-3.358,8.43-6.808,12.541-10.254
			c2.307-1.934,5.745-1.632,7.678,0.674c1.934,2.307,1.632,5.744-0.674,7.678c-4.179,3.504-8.468,7.011-12.748,10.425
			C1654.864,1587.982,1653.664,1588.37,1652.473,1588.37z M821.85,1583.19c-1.214,0-2.435-0.403-3.447-1.231
			c-4.244-3.471-8.494-7.036-12.634-10.596c-2.282-1.962-2.541-5.404-0.579-7.686c1.962-2.282,5.403-2.543,7.686-0.579
			c4.072,3.501,8.253,7.008,12.428,10.422c2.33,1.906,2.674,5.34,0.769,7.67C824.995,1582.507,823.429,1583.19,821.85,1583.19z
			 M1688.966,1557.043c-1.468,0-2.931-0.589-4.005-1.753c-2.042-2.212-1.905-5.66,0.307-7.702c3.956-3.652,7.917-7.401,11.773-11.14
			c2.161-2.094,5.612-2.042,7.707,0.119c2.096,2.161,2.042,5.612-0.119,7.707c-3.92,3.801-7.946,7.61-11.966,11.323
			C1691.615,1556.565,1690.289,1557.043,1688.966,1557.043z M785.721,1551.387c-1.344,0-2.692-0.495-3.745-1.492
			c-3.967-3.755-7.947-7.615-11.829-11.475c-2.135-2.122-2.145-5.573-0.022-7.708c2.123-2.134,5.573-2.144,7.708-0.022
			c3.819,3.797,7.734,7.595,11.636,11.289c2.186,2.069,2.281,5.519,0.212,7.705C788.609,1550.815,787.167,1551.387,785.721,1551.387
			z M1723.114,1523.147c-1.336,0-2.674-0.488-3.726-1.473c-2.196-2.058-2.309-5.507-0.25-7.704
			c3.687-3.935,7.368-7.961,10.942-11.967c2.004-2.247,5.45-2.443,7.695-0.439c2.246,2.004,2.443,5.449,0.439,7.695
			c-3.632,4.072-7.375,8.165-11.122,12.164C1726.019,1522.568,1724.568,1523.147,1723.114,1523.147z M751.997,1517.068
			c-1.477,0-2.949-0.597-4.024-1.773c-3.684-4.03-7.372-8.166-10.963-12.294c-1.976-2.271-1.737-5.714,0.534-7.689
			c2.272-1.976,5.715-1.737,7.689,0.534c3.533,4.061,7.162,8.13,10.785,12.095c2.031,2.222,1.876,5.67-0.346,7.7
			C754.628,1516.596,753.311,1517.068,751.997,1517.068z M1754.735,1486.859c-1.205,0-2.417-0.397-3.426-1.214
			c-2.34-1.894-2.701-5.326-0.807-7.665c3.388-4.185,6.77-8.469,10.053-12.734c1.836-2.385,5.257-2.831,7.643-0.995
			c2.385,1.836,2.831,5.258,0.995,7.643c-3.337,4.335-6.775,8.69-10.219,12.943
			C1757.897,1486.168,1756.323,1486.859,1754.735,1486.859z M720.854,1480.416c-1.611,0-3.206-0.711-4.282-2.074
			c-3.385-4.288-6.763-8.678-10.041-13.047c-1.807-2.408-1.32-5.824,1.088-7.631c2.408-1.806,5.824-1.319,7.631,1.089
			c3.225,4.298,6.548,8.618,9.878,12.836c1.865,2.363,1.461,5.79-0.902,7.655C723.227,1480.033,722.036,1480.416,720.854,1480.416z
			 M1783.658,1448.363c-1.075,0-2.16-0.317-3.109-0.978c-2.471-1.719-3.079-5.116-1.359-7.586c3.073-4.417,6.138-8.937,9.107-13.435
			c1.658-2.513,5.039-3.205,7.551-1.547c2.512,1.659,3.204,5.039,1.547,7.551c-3.018,4.574-6.133,9.168-9.258,13.658
			C1787.077,1447.547,1785.381,1448.363,1783.658,1448.363z M692.454,1441.626c-1.747,0-3.462-0.838-4.517-2.393
			c-3.057-4.509-6.106-9.129-9.065-13.732c-1.627-2.532-0.894-5.904,1.638-7.532c2.534-1.627,5.905-0.894,7.532,1.638
			c2.911,4.528,5.911,9.074,8.918,13.51c1.689,2.491,1.038,5.88-1.453,7.569C694.57,1441.322,693.506,1441.626,692.454,1441.626z
			 M1809.722,1407.852c-0.946,0-1.903-0.246-2.775-0.763c-2.589-1.535-3.444-4.879-1.908-7.468c2.754-4.645,5.483-9.379,8.11-14.069
			c1.47-2.627,4.792-3.563,7.419-2.093c2.626,1.471,3.563,4.792,2.093,7.419c-2.671,4.769-5.445,9.581-8.245,14.304
			C1813.396,1406.898,1811.583,1407.852,1809.722,1407.852z M666.951,1400.898c-1.884,0-3.717-0.978-4.726-2.728
			c-2.727-4.729-5.432-9.555-8.039-14.345c-1.439-2.644-0.463-5.953,2.182-7.393c2.643-1.439,5.953-0.461,7.393,2.182
			c2.564,4.712,5.225,9.459,7.907,14.111c1.504,2.607,0.609,5.941-1.999,7.444C668.811,1400.663,667.875,1400.898,666.951,1400.898z
			 M1832.776,1365.533c-0.817,0-1.646-0.184-2.427-0.574c-2.694-1.343-3.789-4.615-2.446-7.309
			c2.401-4.816,4.778-9.739,7.065-14.632c1.275-2.726,4.517-3.905,7.246-2.629c2.726,1.275,3.904,4.519,2.628,7.246
			c-2.326,4.975-4.743,9.98-7.184,14.878C1836.705,1364.426,1834.778,1365.533,1832.776,1365.533z M644.485,1358.448
			c-2.026,0-3.97-1.134-4.911-3.079c-2.376-4.915-4.721-9.922-6.969-14.882c-1.242-2.742-0.027-5.972,2.715-7.214
			c2.74-1.244,5.971-0.027,7.214,2.714c2.211,4.879,4.517,9.803,6.854,14.637c1.31,2.71,0.175,5.969-2.535,7.279
			C646.089,1358.273,645.281,1358.448,644.485,1358.448z M1852.687,1321.619c-0.689,0-1.389-0.131-2.066-0.408
			c-2.785-1.142-4.117-4.325-2.975-7.11c2.045-4.989,4.057-10.076,5.979-15.121c1.072-2.813,4.223-4.223,7.034-3.152
			c2.813,1.072,4.225,4.221,3.153,7.034c-1.955,5.129-4,10.301-6.079,15.374C1856.868,1320.343,1854.833,1321.619,1852.687,1321.619
			z M625.182,1314.502c-2.169,0-4.221-1.304-5.068-3.444c-2.014-5.08-3.992-10.261-5.882-15.398
			c-1.039-2.825,0.409-5.958,3.234-6.997c2.825-1.039,5.957,0.409,6.996,3.234c1.858,5.053,3.805,10.148,5.785,15.144
			c1.11,2.799-0.26,5.966-3.059,7.075C626.529,1314.378,625.85,1314.502,625.182,1314.502z M1869.335,1276.337
			c-0.561,0-1.131-0.087-1.692-0.27c-2.862-0.934-4.424-4.011-3.49-6.873c1.666-5.102,3.293-10.308,4.837-15.472
			c0.862-2.884,3.9-4.524,6.784-3.66c2.884,0.862,4.523,3.899,3.66,6.783c-1.57,5.251-3.225,10.544-4.919,15.732
			C1873.765,1274.877,1871.63,1276.337,1869.335,1276.337z M609.102,1269.148c-2.318,0-4.469-1.491-5.199-3.82
			c-1.635-5.214-3.23-10.525-4.738-15.786c-0.83-2.893,0.844-5.912,3.737-6.741c2.893-0.83,5.912,0.844,6.741,3.737
			c1.483,5.175,3.051,10.4,4.66,15.528c0.901,2.872-0.697,5.931-3.569,6.832C610.192,1269.067,609.642,1269.148,609.102,1269.148z
			 M1882.582,1230.077c-0.433,0-0.872-0.052-1.312-0.16c-2.922-0.722-4.705-3.677-3.983-6.599c1.29-5.219,2.531-10.53,3.692-15.785
			c0.648-2.939,3.558-4.795,6.497-4.147c2.939,0.649,4.797,3.557,4.148,6.497c-1.18,5.344-2.443,10.744-3.755,16.05
			C1887.255,1228.416,1885.03,1230.077,1882.582,1230.077z M596.388,1222.74c-2.473,0-4.711-1.694-5.301-4.205
			c-1.251-5.328-2.452-10.742-3.569-16.091c-0.615-2.947,1.274-5.834,4.221-6.449c2.942-0.617,5.833,1.274,6.449,4.221
			c1.098,5.262,2.279,10.586,3.51,15.827c0.689,2.93-1.129,5.864-4.06,6.552C597.22,1222.693,596.801,1222.74,596.388,1222.74z
			 M1892.407,1182.973c-0.305,0-0.614-0.025-0.924-0.078c-2.967-0.507-4.962-3.323-4.456-6.29
			c0.903-5.288,1.754-10.675,2.529-16.012c0.433-2.979,3.199-5.047,6.177-4.61c2.979,0.432,5.042,3.198,4.61,6.177
			c-0.789,5.427-1.653,10.904-2.571,16.281C1897.319,1181.096,1895.013,1182.973,1892.407,1182.973z M587.104,1175.527
			c-2.633,0-4.95-1.913-5.376-4.596c-0.856-5.387-1.659-10.874-2.385-16.307c-0.399-2.983,1.696-5.725,4.679-6.124
			c2.992-0.399,5.725,1.696,6.125,4.679c0.715,5.345,1.505,10.742,2.346,16.042c0.472,2.973-1.555,5.765-4.528,6.238
			C587.677,1175.505,587.389,1175.527,587.104,1175.527z M1898.768,1135.28c-0.175,0-0.352-0.008-0.53-0.026
			c-2.996-0.289-5.19-2.953-4.901-5.949c0.518-5.357,0.975-10.792,1.36-16.155c0.216-3.002,2.827-5.254,5.827-5.046
			c3.002,0.216,5.262,2.824,5.046,5.827c-0.391,5.452-0.857,10.977-1.383,16.422
			C1903.915,1133.171,1901.542,1135.28,1898.768,1135.28z M581.288,1127.765c-2.801,0-5.182-2.146-5.424-4.988
			c-0.462-5.426-0.865-10.956-1.197-16.436c-0.182-3.005,2.106-5.588,5.111-5.77c3.026-0.183,5.588,2.106,5.77,5.111
			c0.327,5.392,0.723,10.833,1.177,16.171c0.256,2.999-1.969,5.638-4.968,5.893C581.6,1127.758,581.444,1127.765,581.288,1127.765z
			 M1901.658,1087.252c-0.045,0-0.089-0.001-0.135-0.001c-3.009-0.073-5.39-2.572-5.316-5.581c0.13-5.38,0.196-10.835,0.196-16.213
			c0-0.199,0.011-0.395,0.032-0.588c-0.021-0.193-0.032-0.388-0.032-0.585c-0.01-5.395-0.086-10.85-0.225-16.213
			c-0.078-3.009,2.297-5.512,5.306-5.59c3.01-0.094,5.512,2.298,5.591,5.307c0.142,5.451,0.219,10.995,0.229,16.477
			c0.001,0.202-0.011,0.402-0.032,0.599c0.021,0.195,0.032,0.393,0.032,0.594c0,5.466-0.067,11.009-0.2,16.477
			C1907.033,1084.898,1904.607,1087.252,1901.658,1087.252z M578.94,1079.701c-2.977,0-5.409-2.394-5.448-5.38
			c-0.039-2.952-0.058-5.934-0.058-8.864c0-2.542,0.014-5.081,0.043-7.617c0.033-2.989,2.467-5.39,5.449-5.39
			c0.02,0,0.041,0,0.061,0.001c3.01,0.033,5.423,2.5,5.389,5.51c-0.027,2.495-0.042,4.994-0.042,7.496
			c0,2.883,0.019,5.818,0.056,8.723c0.039,3.01-2.369,5.481-5.379,5.52C578.989,1079.7,578.964,1079.701,578.94,1079.701z
			 M580.039,1031.595c-0.107,0-0.215-0.003-0.324-0.009c-3.005-0.176-5.298-2.755-5.122-5.76c0.32-5.465,0.713-10.995,1.166-16.438
			c0.25-3,2.882-5.226,5.884-4.979c3,0.25,5.229,2.884,4.98,5.883c-0.446,5.354-0.831,10.796-1.147,16.172
			C585.305,1029.36,582.903,1031.595,580.039,1031.595z M1900.041,1021.638c-2.828,0-5.219-2.184-5.43-5.05
			c-0.397-5.379-0.864-10.813-1.39-16.153c-0.294-2.996,1.895-5.663,4.891-5.958c3.009-0.289,5.663,1.896,5.958,4.891
			c0.534,5.428,1.009,10.952,1.412,16.419c0.222,3.002-2.033,5.615-5.034,5.836
			C1900.312,1021.633,1900.176,1021.638,1900.041,1021.638z M584.589,983.696c-0.237,0-0.477-0.015-0.718-0.047
			c-2.984-0.393-5.085-3.131-4.692-6.115c0.713-5.418,1.506-10.907,2.354-16.313c0.468-2.974,3.262-5.005,6.23-4.539
			c2.974,0.467,5.006,3.256,4.539,6.23c-0.835,5.318-1.614,10.716-2.315,16.045C589.625,981.699,587.283,983.696,584.589,983.696z
			 M1894.771,973.813c-2.659,0-4.987-1.949-5.386-4.658c-0.782-5.318-1.642-10.704-2.557-16.007
			c-0.512-2.966,1.478-5.786,4.445-6.298c2.964-0.513,5.786,1.478,6.297,4.444c0.93,5.393,1.805,10.868,2.6,16.275
			c0.438,2.978-1.622,5.747-4.6,6.185C1895.302,973.794,1895.035,973.813,1894.771,973.813z M592.606,936.253
			c-0.366,0-0.737-0.037-1.11-0.114c-2.947-0.61-4.843-3.494-4.233-6.441c1.112-5.375,2.303-10.791,3.539-16.099
			c0.684-2.932,3.615-4.752,6.545-4.071c2.931,0.683,4.754,3.613,4.071,6.545c-1.216,5.22-2.387,10.547-3.481,15.833
			C597.405,934.481,595.136,936.253,592.606,936.253z M1886.039,926.497c-2.497,0-4.749-1.727-5.315-4.266
			c-1.172-5.263-2.424-10.571-3.72-15.78c-0.727-2.921,1.052-5.878,3.973-6.605c2.918-0.727,5.878,1.051,6.605,3.973
			c1.318,5.295,2.59,10.692,3.783,16.042c0.654,2.938-1.197,5.851-4.135,6.505C1886.83,926.455,1886.432,926.497,1886.039,926.497z
			 M604.066,889.52c-0.494,0-0.996-0.068-1.494-0.209c-2.895-0.824-4.574-3.839-3.751-6.733c1.498-5.264,3.082-10.579,4.708-15.797
			c0.897-2.874,3.958-4.475,6.825-3.581c2.874,0.896,4.477,3.951,3.581,6.825c-1.599,5.132-3.157,10.359-4.63,15.536
			C608.624,887.957,606.44,889.52,604.066,889.52z M1873.87,879.945c-2.343,0-4.507-1.522-5.217-3.881
			c-1.546-5.137-3.183-10.34-4.866-15.465c-0.939-2.86,0.619-5.939,3.478-6.878c2.857-0.94,5.939,0.618,6.878,3.478
			c1.711,5.21,3.375,10.5,4.948,15.723c0.867,2.883-0.766,5.922-3.649,6.79C1874.919,879.871,1874.39,879.945,1873.87,879.945z
			 M618.947,843.678c-0.622,0-1.254-0.107-1.871-0.333c-2.827-1.034-4.281-4.164-3.247-6.991c1.881-5.142,3.857-10.342,5.873-15.456
			c1.105-2.801,4.271-4.173,7.069-3.071c2.801,1.104,4.176,4.269,3.072,7.069c-1.983,5.03-3.927,10.145-5.776,15.202
			C623.258,842.307,621.17,843.678,618.947,843.678z M1858.324,834.409c-2.193,0-4.26-1.333-5.091-3.503
			c-1.922-5.02-3.937-10.089-5.986-15.066c-1.146-2.784,0.181-5.969,2.965-7.115c2.781-1.146,5.968,0.181,7.115,2.964
			c2.083,5.06,4.131,10.214,6.085,15.319c1.077,2.811-0.33,5.962-3.141,7.039C1859.63,834.292,1858.971,834.409,1858.324,834.409z
			 M637.164,799.018c-0.75,0-1.512-0.156-2.24-0.484c-2.743-1.239-3.963-4.467-2.725-7.21c2.258-5.003,4.608-10.041,6.987-14.974
			c1.306-2.712,4.564-3.85,7.276-2.544c2.712,1.307,3.85,4.564,2.543,7.276c-2.338,4.851-4.649,9.806-6.871,14.726
			C641.224,797.825,639.24,799.018,637.164,799.018z M1839.513,790.194c-2.048,0-4.01-1.159-4.937-3.136
			c-2.284-4.866-4.656-9.76-7.049-14.547c-1.346-2.692-0.255-5.966,2.438-7.312c2.693-1.345,5.966-0.255,7.312,2.437
			c2.433,4.867,4.845,9.843,7.167,14.79c1.279,2.725,0.107,5.97-2.618,7.25C1841.077,790.027,1840.289,790.194,1839.513,790.194z
			 M658.592,755.837c-0.878,0-1.769-0.213-2.595-0.661c-2.646-1.436-3.626-4.744-2.191-7.39c2.612-4.813,5.323-9.662,8.056-14.413
			c1.501-2.61,4.834-3.506,7.442-2.007c2.609,1.501,3.508,4.833,2.007,7.442c-2.688,4.674-5.355,9.443-7.924,14.178
			C662.399,754.805,660.526,755.837,658.592,755.837z M1817.541,747.494c-1.907,0-3.757-1.002-4.758-2.783
			c-2.629-4.683-5.353-9.395-8.094-14.007c-1.538-2.587-0.688-5.932,1.9-7.47c2.587-1.538,5.932-0.688,7.47,1.9
			c2.787,4.688,5.556,9.479,8.229,14.24c1.474,2.625,0.542,5.947-2.083,7.421C1819.361,747.269,1818.444,747.494,1817.541,747.494z
			 M683.104,714.354c-1.007,0-2.026-0.279-2.937-0.863c-2.534-1.625-3.271-4.996-1.647-7.53c2.954-4.608,6.009-9.244,9.078-13.781
			c1.686-2.493,5.075-3.146,7.568-1.46c2.493,1.687,3.147,5.075,1.46,7.568c-3.019,4.462-6.023,9.023-8.929,13.556
			C686.657,713.468,684.899,714.354,683.104,714.354z M1792.508,706.482c-1.768,0-3.502-0.859-4.551-2.445
			c-2.958-4.473-6.018-8.978-9.095-13.391c-1.722-2.469-1.116-5.866,1.353-7.588c2.469-1.722,5.867-1.116,7.588,1.353
			c3.128,4.486,6.24,9.067,9.247,13.614c1.66,2.511,0.97,5.892-1.54,7.552C1794.585,706.189,1793.54,706.482,1792.508,706.482z
			 M710.558,674.779c-1.137,0-2.283-0.354-3.263-1.088c-2.409-1.804-2.9-5.22-1.095-7.629c3.283-4.385,6.664-8.785,10.049-13.08
			c1.863-2.364,5.29-2.771,7.654-0.907c2.364,1.863,2.77,5.29,0.907,7.654c-3.329,4.224-6.655,8.553-9.885,12.866
			C713.854,674.025,712.216,674.779,710.558,674.779z M1764.552,667.373c-1.632,0-3.247-0.731-4.32-2.123
			c-3.276-4.25-6.656-8.524-10.046-12.705c-1.896-2.338-1.537-5.77,0.8-7.666c2.338-1.896,5.77-1.537,7.666,0.8
			c3.446,4.25,6.882,8.596,10.213,12.916c1.838,2.384,1.394,5.807-0.989,7.644C1766.885,667.003,1765.714,667.373,1764.552,667.373z
			 M740.796,637.313c-1.267,0-2.54-0.439-3.572-1.336c-2.273-1.974-2.514-5.417-0.539-7.689c3.587-4.129,7.275-8.271,10.963-12.311
			c2.029-2.223,5.476-2.381,7.699-0.351c2.223,2.029,2.381,5.476,0.351,7.7c-3.627,3.974-7.256,8.049-10.785,12.112
			C743.836,636.677,742.32,637.313,740.796,637.313z M1733.828,630.373c-1.498,0-2.99-0.614-4.067-1.819
			c-3.573-4.001-7.255-8.022-10.943-11.952c-2.06-2.195-1.951-5.644,0.244-7.704c2.195-2.06,5.643-1.951,7.704,0.244
			c3.75,3.995,7.493,8.083,11.126,12.15c2.005,2.245,1.811,5.691-0.435,7.696C1736.418,629.916,1735.121,630.373,1733.828,630.373z
			 M773.653,602.146c-1.399,0-2.797-0.535-3.863-1.605c-2.123-2.133-2.116-5.584,0.017-7.708c3.87-3.853,7.846-7.716,11.818-11.481
			c2.184-2.072,5.635-1.979,7.705,0.206c2.071,2.184,1.979,5.634-0.206,7.705c-3.907,3.704-7.819,7.505-11.627,11.296
			C776.435,601.617,775.044,602.146,773.653,602.146z M1700.495,595.675c-1.365,0-2.733-0.51-3.791-1.535
			c-3.858-3.737-7.823-7.483-11.785-11.136c-2.213-2.04-2.353-5.489-0.312-7.701c2.04-2.213,5.487-2.353,7.701-0.313
			c4.027,3.713,8.057,7.521,11.98,11.32c2.162,2.094,2.217,5.544,0.124,7.707C1703.342,595.12,1701.92,595.675,1700.495,595.675z
			 M808.952,569.456c-1.532,0-3.054-0.642-4.132-1.894c-1.965-2.281-1.707-5.722,0.573-7.687c4.133-3.559,8.376-7.123,12.61-10.592
			c2.328-1.909,5.761-1.567,7.67,0.762c1.907,2.328,1.567,5.762-0.762,7.67c-4.165,3.413-8.339,6.919-12.405,10.421
			C811.477,569.021,810.211,569.456,808.952,569.456z M1664.73,563.465c-1.234,0-2.475-0.417-3.496-1.271
			c-4.123-3.452-8.35-6.904-12.565-10.259c-2.355-1.875-2.744-5.303-0.869-7.659c1.875-2.355,5.304-2.744,7.659-0.869
			c4.284,3.411,8.582,6.92,12.773,10.429c2.308,1.933,2.612,5.37,0.68,7.678C1667.834,562.801,1666.288,563.465,1664.73,563.465z
			 M846.506,539.415c-1.667,0-3.311-0.761-4.38-2.202c-1.794-2.417-1.289-5.831,1.128-7.625c4.384-3.254,8.871-6.5,13.336-9.647
			c2.461-1.734,5.861-1.145,7.595,1.315c1.734,2.46,1.145,5.861-1.315,7.595c-4.393,3.096-8.807,6.289-13.119,9.49
			C848.774,539.065,847.634,539.415,846.506,539.415z M1626.716,533.916c-1.104,0-2.218-0.334-3.182-1.029
			c-4.377-3.154-8.845-6.292-13.282-9.326c-2.485-1.699-3.121-5.091-1.422-7.575c1.698-2.485,5.089-3.123,7.575-1.422
			c4.51,3.085,9.053,6.274,13.502,9.48c2.442,1.76,2.995,5.166,1.235,7.608C1630.077,533.13,1628.408,533.916,1626.716,533.916z
			 M886.116,512.183c-1.803,0-3.567-0.894-4.605-2.528c-1.614-2.541-0.863-5.909,1.677-7.523c4.61-2.929,9.318-5.839,13.993-8.65
			c2.578-1.55,5.928-0.717,7.479,1.863c1.551,2.58,0.717,5.928-1.863,7.479c-4.599,2.765-9.23,5.628-13.764,8.509
			C888.128,511.908,887.116,512.183,886.116,512.183z M1586.643,507.191c-0.975,0-1.962-0.261-2.853-0.81
			c-4.584-2.822-9.271-5.628-13.931-8.34c-2.602-1.514-3.483-4.85-1.969-7.452c1.514-2.601,4.851-3.483,7.452-1.969
			c4.738,2.757,9.504,5.61,14.164,8.479c2.563,1.578,3.362,4.935,1.784,7.499C1590.26,506.27,1588.473,507.191,1586.643,507.191z
			 M927.576,487.908c-1.942,0-3.822-1.04-4.805-2.871c-1.426-2.651-0.432-5.956,2.219-7.381c4.807-2.585,9.711-5.143,14.576-7.605
			c2.685-1.361,5.965-0.284,7.324,2.401c1.359,2.686,0.284,5.965-2.402,7.324c-4.785,2.422-9.608,4.939-14.336,7.481
			C929.33,487.698,928.447,487.908,927.576,487.908z M1544.714,483.444c-0.846,0-1.704-0.197-2.507-0.614
			c-4.787-2.485-9.67-4.943-14.513-7.306c-2.705-1.32-3.828-4.583-2.508-7.288c1.321-2.705,4.583-3.828,7.289-2.508
			c4.922,2.402,9.887,4.901,14.753,7.428c2.672,1.387,3.713,4.677,2.327,7.348C1548.586,482.373,1546.684,483.444,1544.714,483.444z
			 M970.665,466.725c-2.084,0-4.073-1.201-4.978-3.227c-1.229-2.748,0.003-5.972,2.751-7.2c4.975-2.224,10.049-4.417,15.079-6.518
			c2.78-1.162,5.97,0.151,7.13,2.929c1.16,2.778-0.151,5.97-2.929,7.13c-4.948,2.067-9.938,4.224-14.831,6.411
			C972.164,466.572,971.408,466.725,970.665,466.725z M1501.144,462.812c-0.718,0-1.447-0.143-2.148-0.443
			c-4.963-2.131-10.016-4.226-15.018-6.228c-2.795-1.118-4.154-4.29-3.035-7.085c1.118-2.794,4.29-4.154,7.085-3.035
			c5.086,2.035,10.223,4.166,15.269,6.332c2.766,1.187,4.045,4.392,2.858,7.158C1505.268,461.576,1503.257,462.812,1501.144,462.812
			z M1015.154,448.753c-2.23,0-4.322-1.378-5.126-3.596c-1.025-2.83,0.44-5.955,3.27-6.98c5.141-1.861,10.378-3.684,15.567-5.418
			c2.857-0.952,5.943,0.587,6.896,3.442c0.954,2.855-0.587,5.942-3.442,6.896c-5.104,1.705-10.256,3.498-15.312,5.329
			C1016.397,448.648,1015.77,448.753,1015.154,448.753z M1456.154,445.419c-0.589,0-1.189-0.097-1.777-0.3
			c-5.103-1.76-10.299-3.48-15.446-5.112c-2.869-0.91-4.458-3.974-3.547-6.843c0.91-2.869,3.972-4.458,6.843-3.547
			c5.232,1.66,10.516,3.409,15.704,5.198c2.846,0.981,4.357,4.084,3.375,6.929C1460.528,444.001,1458.415,445.419,1456.154,445.419z
			 M1060.965,434.041c-2.381,0-4.567-1.572-5.244-3.976c-0.815-2.898,0.874-5.907,3.771-6.722c5.264-1.48,10.621-2.914,15.923-4.263
			c2.921-0.741,5.883,1.021,6.626,3.938c0.742,2.917-1.021,5.884-3.938,6.626c-5.214,1.326-10.483,2.737-15.659,4.192
			C1061.951,433.974,1061.454,434.041,1060.965,434.041z M1410.068,431.392c-0.462,0-0.931-0.059-1.398-0.183
			c-5.199-1.376-10.489-2.706-15.723-3.952c-2.928-0.698-4.736-3.637-4.039-6.565c0.697-2.928,3.634-4.739,6.565-4.039
			c5.321,1.268,10.7,2.62,15.986,4.018c2.91,0.77,4.644,3.753,3.875,6.663C1414.686,429.777,1412.48,431.392,1410.068,431.392z
			 M1107.73,422.724c-2.538,0-4.81-1.781-5.335-4.364c-0.601-2.949,1.304-5.827,4.253-6.428c5.363-1.092,10.811-2.13,16.192-3.087
			c2.963-0.527,5.792,1.449,6.32,4.412c0.527,2.964-1.449,5.793-4.412,6.32c-5.292,0.941-10.65,1.962-15.924,3.036
			C1108.456,422.688,1108.09,422.724,1107.73,422.724z M1363.135,420.793c-0.333,0-0.671-0.031-1.011-0.094
			c-5.293-0.993-10.667-1.932-15.971-2.792c-2.971-0.482-4.989-3.281-4.508-6.252c0.482-2.971,3.278-4.993,6.252-4.508
			c5.392,0.874,10.855,1.829,16.236,2.838c2.959,0.555,4.907,3.403,4.352,6.362C1367.995,418.965,1365.707,420.793,1363.135,420.793
			z M1155.196,414.855c-2.701,0-5.046-2.006-5.399-4.756c-0.384-2.985,1.725-5.717,4.711-6.1c5.416-0.696,10.924-1.335,16.371-1.899
			c2.991-0.31,5.673,1.866,5.982,4.86c0.31,2.994-1.866,5.672-4.86,5.983c-5.359,0.555-10.777,1.184-16.104,1.868
			C1155.662,414.841,1155.427,414.855,1155.196,414.855z M1315.552,413.648c-0.204,0-0.411-0.012-0.619-0.035
			c-5.349-0.605-10.776-1.151-16.132-1.624c-2.998-0.265-5.214-2.91-4.95-5.909c0.265-2.999,2.911-5.216,5.909-4.95
			c5.444,0.48,10.96,1.036,16.398,1.65c2.991,0.338,5.142,3.037,4.803,6.028C1320.647,411.592,1318.288,413.648,1315.552,413.648z
			 M1203.11,410.454c-2.872,0-5.276-2.246-5.437-5.148c-0.167-3.005,2.134-5.577,5.139-5.744c5.454-0.303,10.994-0.543,16.466-0.713
			c3.008-0.102,5.524,2.27,5.617,5.278c0.093,3.009-2.27,5.524-5.278,5.617c-5.384,0.167-10.834,0.403-16.2,0.702
			C1203.314,410.451,1203.212,410.454,1203.11,410.454z M1267.575,409.972c-0.074,0-0.149-0.002-0.224-0.005
			c-5.374-0.217-10.827-0.372-16.207-0.458c-3.01-0.048-5.411-2.528-5.362-5.537c0.048-2.98,2.479-5.363,5.448-5.363
			c0.03,0,0.06,0,0.089,0.001c5.469,0.088,11.011,0.245,16.473,0.466c3.008,0.122,5.347,2.658,5.226,5.666
			C1272.899,407.675,1270.484,409.972,1267.575,409.972z"/>
		<g id="paper">
			<g>
				<rect x="1292.817" y="240.617" style="fill:#296ACC;" width="237.567" height="296.54"/>
			</g>
			<g>
				
					<rect x="1323.627" y="271.237" style="fill:#FFFFFF;stroke:#5896FA;stroke-width:7.9165;stroke-miterlimit:10;" width="237.567" height="296.54"/>
			</g>
			<g>
				
					<rect x="1362.752" y="301.304" style="fill:#FFFFFF;stroke:#5896FA;stroke-width:7.9165;stroke-miterlimit:10;" width="237.567" height="296.54"/>
			</g>
			<g>
				<rect x="1391.219" y="331.924" style="fill:#5896FA;" width="237.567" height="296.54"/>
				<rect x="1468.941" y="380.609" style="fill:#005CEA;" width="122.887" height="19.287"/>
				<rect x="1432.598" y="425.921" style="fill:#005CEA;" width="159.229" height="19.287"/>
				<rect x="1432.598" y="471.233" style="fill:#005CEA;" width="159.229" height="19.287"/>
				<rect x="1432.598" y="516.545" style="fill:#005CEA;" width="159.229" height="19.287"/>
				<rect x="1432.598" y="561.857" style="fill:#005CEA;" width="159.229" height="19.287"/>
			</g>
		</g>
		<g id="gear">
			
				<ellipse transform="matrix(0.7071 -0.7071 0.7071 0.7071 -172.3696 710.6395)" style="fill:#AAE0FF;" cx="771.633" cy="563.388" rx="83.908" ry="83.908"/>
			<g>
				<path style="fill:#005CEA;" d="M904.018,643.179c10.881-18.043,17.682-37.54,20.563-57.218l6.251,0.915l12.343,1.815l0.16,0.013
					c3.33-22.514,2.196-45.284-3.243-67.039l-18.361,4.548c-4.926-19.682-13.604-38.437-25.975-54.965l15.22-11.313
					c-13.022-17.678-29.735-33.131-49.688-45.163l-9.804,16.257c-18.107-10.919-37.54-17.683-57.218-20.564l2.743-18.753
					c-22.514-3.332-45.32-2.136-67.038,3.243l4.548,18.362c-19.684,4.926-38.437,13.604-54.966,25.974l-11.312-15.219
					c-17.677,13.021-33.132,29.735-45.164,49.688l16.259,9.805c-10.918,18.106-17.684,37.539-20.564,57.217l-13.266-1.954
					l-5.425-0.752l-0.062-0.037c-3.331,22.512-2.136,45.32,3.242,67.038l18.363-4.547c4.926,19.683,13.665,38.473,26.035,55.002
					l-15.22,11.313c13.022,17.678,29.675,33.095,49.628,45.127l9.804-16.258c18.105,10.918,37.601,17.72,57.279,20.602
					l-2.155,14.572l-0.589,4.18c22.514,3.332,45.258,2.099,66.976-3.279l-4.546-18.362c19.682-4.926,38.473-13.665,55.063-25.999
					l11.312,15.219c17.617-13.058,33.033-29.711,45.065-49.664L904.018,643.179z M728.338,635.24
					c-39.721-23.953-52.483-75.486-28.53-115.207c23.916-39.659,75.449-52.419,115.17-28.466
					c39.659,23.916,52.42,75.448,28.504,115.107C819.529,646.394,767.997,659.156,728.338,635.24z"/>
			</g>
			<g>
				<path style="fill:#1251B3;" d="M589.991,632.047c-6.122-9.252-13.857-16.892-22.564-22.708l1.848-2.766l3.652-5.46l0.043-0.073
					c-9.954-6.671-21.038-11.277-32.613-13.606l-1.986,9.759c-10.473-2.105-21.353-2.216-32.008-0.068l-1.941-9.794
					c-11.349,2.198-22.475,6.654-32.705,13.424l5.516,8.336c-9.284,6.143-16.892,13.857-22.708,22.563l-8.298-5.542
					c-6.672,9.954-11.257,21.069-13.606,32.613l9.76,1.987c-2.105,10.474-2.216,21.353-0.068,32.009l-9.794,1.94
					c2.198,11.349,6.654,22.475,13.424,32.706l8.337-5.516c6.143,9.284,13.856,16.892,22.563,22.708l-3.927,5.867l-1.583,2.41
					l-0.032,0.021c9.953,6.671,21.069,11.257,32.612,13.606l1.987-9.76c10.474,2.105,21.384,2.195,32.039,0.048l1.941,9.794
					c11.349-2.198,22.444-6.634,32.674-13.404l-5.516-8.336c9.283-6.143,16.924-13.877,22.74-22.584l6.443,4.317l1.854,1.225
					c6.672-9.954,11.225-21.048,13.575-32.592l-9.759-1.987c2.105-10.473,2.195-21.384,0.079-32.06l9.794-1.94
					c-2.229-11.328-6.665-22.423-13.435-32.653L589.991,632.047z M546.518,713.798c-20.366,13.477-47.757,7.901-61.234-12.465
					c-13.456-20.335-7.879-47.725,12.487-61.202c20.335-13.456,47.724-7.88,61.18,12.455
					C572.428,672.953,566.852,700.343,546.518,713.798z"/>
			</g>
		</g>
		<g id="card">
			<path style="fill:#005CEA;" d="M1962.294,802.557l-203.985,0c-4.294,0-7.776-3.481-7.776-7.776v-115.74
				c0-4.295,3.481-7.776,7.776-7.776h203.985c4.294,0,7.776,3.481,7.776,7.776l0,115.74
				C1970.07,799.076,1966.589,802.557,1962.294,802.557z"/>
			<rect x="1750.533" y="696.061" style="fill:#5896FA;" width="219.537" height="22.655"/>
			<path style="fill:#D1F5FF;" d="M1800.819,777.368h-32.279c-2.052,0-3.715,1.663-3.715,3.715l0,0c0,2.052,1.663,3.715,3.715,3.715
				l32.279,0c2.052,0,3.715-1.663,3.715-3.715l0,0C1804.534,779.031,1802.871,777.368,1800.819,777.368z"/>
			<path style="fill:#D1F5FF;" d="M1850.458,777.368h-32.279c-2.052,0-3.715,1.663-3.715,3.715l0,0c0,2.052,1.663,3.715,3.715,3.715
				h32.279c2.052,0,3.715-1.663,3.715-3.715l0,0C1854.173,779.031,1852.51,777.368,1850.458,777.368z"/>
			<path style="fill:#D1F5FF;" d="M1900.097,777.368h-32.279c-2.052,0-3.715,1.663-3.715,3.715l0,0c0,2.052,1.663,3.715,3.715,3.715
				h32.279c2.052,0,3.715-1.663,3.715-3.715l0,0C1903.812,779.031,1902.149,777.368,1900.097,777.368z"/>
			<path style="fill:#D1F5FF;" d="M1949.736,777.368h-32.279c-2.052,0-3.715,1.663-3.715,3.715l0,0c0,2.052,1.663,3.715,3.715,3.715
				h32.279c2.052,0,3.715-1.663,3.715-3.715v0C1953.451,779.031,1951.787,777.368,1949.736,777.368z"/>
			<path style="fill:#D1F5FF;" d="M1767.053,677.929L1767.053,677.929c-2.265,0-4.1,1.836-4.1,4.1v1.44c0,2.265,1.836,4.1,4.1,4.1
				l0,0c2.265,0,4.1-1.836,4.1-4.1v-1.44C1771.154,679.765,1769.318,677.929,1767.053,677.929z"/>
			<path style="fill:#D1F5FF;" d="M1775.887,682.75L1775.887,682.75c0,2.662,2.158,4.821,4.821,4.821h17.086
				c2.662,0,4.821-2.158,4.821-4.821l0,0c0-2.662-2.158-4.821-4.821-4.821h-17.086
				C1778.046,677.929,1775.887,680.087,1775.887,682.75z"/>
			<path style="fill:#5896FA;" d="M1773.646,730.903h22.067c3.537,0,6.404,2.867,6.404,6.404l0,19.025
				c0,3.537-2.867,6.404-6.404,6.404h-22.067c-3.537,0-6.404-2.867-6.404-6.404v-19.025
				C1767.242,733.77,1770.109,730.903,1773.646,730.903z"/>
		</g>
		<g id="folder">
			<g>
				<path style="fill:#1251B3;" d="M1865.732,1159.552v-15.445c0-7.014-5.683-12.7-12.697-12.7h-135.186
					c-7.014,0-12.7,5.686-12.7,12.7v273.02h349.687v-257.575H1865.732z"/>
				<polygon style="fill:#FFFFFF;" points="2069.378,1168.935 1726.479,1168.935 1705.15,1417.128 2053.132,1417.128 				"/>
				<path style="fill:#3383FF;" d="M2054.838,1417.128H1705.15l37.106-245.105c1.085-7.17,7.248-12.469,14.499-12.469h320.025
					c8.973,0,15.842,7.987,14.499,16.859L2054.838,1417.128z"/>
			</g>
			<g>
				<g>
					<circle style="fill:#005CEA;" cx="2091.448" cy="1168.934" r="80.123"/>
					<path style="fill:#FFFFFF;" d="M2091.448,1251.987c-45.798,0-83.066-37.259-83.066-83.057
						c0-45.789,37.268-83.047,83.066-83.047s83.066,37.259,83.066,83.047C2174.514,1214.728,2137.246,1251.987,2091.448,1251.987z
						 M2091.448,1091.741c-42.573,0-77.189,34.625-77.189,77.189c0,42.564,34.616,77.198,77.189,77.198s77.189-34.635,77.189-77.198
						C2168.637,1126.366,2134.021,1091.741,2091.448,1091.741z"/>
				</g>
				<g>
					<path style="fill:#FFFFFF;" d="M2052.882,1154.436v56.734c0,6.316,77.133,6.316,77.133,0v-56.734H2052.882z M2095.35,1184.563
						v16.08c0,2.142-1.742,3.92-3.884,3.92c-2.177,0-3.92-1.779-3.92-3.92v-16.116c-3.304-1.488-5.626-4.828-5.626-8.675
						c0-5.263,4.283-9.51,9.546-9.51c5.263,0,9.51,4.247,9.51,9.51C2100.976,1179.735,2098.689,1183.075,2095.35,1184.563z"/>
					<path style="fill:#FFFFFF;" d="M2123.263,1150.392h-7.808v-3.82c0-13.237-10.769-24.006-24.003-24.006
						c-13.237,0-24.006,10.769-24.006,24.006v3.82h-7.808v-3.82c0-17.542,14.271-31.814,31.814-31.814
						c17.54,0,31.811,14.271,31.811,31.814V1150.392z"/>
				</g>
			</g>
		</g>
		<g id="shield">
			<g>
				<g>
					<g>
						<g>
							<path style="fill:#2E77E6;" d="M608.101,1070.622c-0.094-0.102-0.197-0.2-0.29-0.302
								c-39.253,42.047-101.886,76.506-168.91,91.187c-0.021,4.477-0.132,29.277-0.642,143.588
								c-0.682,152.489,144.442,227.005,166.972,238.441C539.042,1275.599,590.893,1113.54,608.101,1070.622z"/>
							<path style="fill:#2E77E6;" d="M608.101,1070.622c-17.208,42.918-69.059,204.976-2.869,472.914
								c21.829-10.048,168.784-84.448,169.465-236.937c0.512-114.311,0.622-139.112,0.643-143.588
								C708.609,1147.768,646.992,1112.88,608.101,1070.622z"/>
						</g>
						<path style="fill:none;stroke:#FFFFFF;stroke-width:11.8596;stroke-miterlimit:10;" d="M608.102,1070.622
							c-0.094-0.102-0.197-0.2-0.291-0.301c-39.253,42.047-101.885,76.506-168.91,91.187c-0.019,4.477-0.13,29.277-0.64,143.588
							c-0.682,152.489,144.442,227.005,166.972,238.441c21.829-10.048,168.783-84.448,169.465-236.937
							c0.51-114.311,0.621-139.112,0.643-143.588C708.609,1147.768,646.992,1112.88,608.102,1070.622z"/>
					</g>
					<path style="fill:#4D94FF;" d="M607.584,1515.249l-4.715-0.269c-15.759-8.19-46.584-26.306-76.014-55.57
						c-45.064-44.858-67.783-96.664-67.524-153.992l0.569-126.259l4.24-1.096c54.226-13.98,103.696-39.667,139.298-72.322
						l4.002-3.681l3.847,3.847l-3.702,4.302l3.867-4.157c35.303,32.862,84.431,58.879,138.336,73.294l4.229,1.117l-0.569,126.259
						c-0.258,57.328-23.432,108.928-68.879,153.372c-28.726,28.085-58.921,45.767-74.37,53.813L607.584,1515.249z M471.213,1187.949
						l-0.527,117.511c-0.238,54.185,21.353,103.261,64.174,145.885c26.824,26.699,54.857,43.741,70.657,52.199
						c14.911-7.797,43.71-24.776,71.112-51.558c43.203-42.252,65.229-91.142,65.466-145.306l0.527-117.531
						c-52.251-14.601-99.994-39.832-135.379-71.557C571.589,1148.965,523.639,1173.782,471.213,1187.949z"/>
				</g>
			</g>
			<g>
				<path style="fill:#FFFFFF;" d="M539.602,1284.403v100.091c0,11.143,136.08,11.143,136.08,0v-100.091H539.602z M614.526,1337.554
					v28.368c0,3.779-3.074,6.917-6.852,6.917c-3.841,0-6.915-3.138-6.915-6.917v-28.432c-5.828-2.626-9.926-8.517-9.926-15.305
					c0-9.286,7.556-16.778,16.841-16.778s16.779,7.492,16.779,16.778C624.453,1329.037,620.417,1334.929,614.526,1337.554z"/>
				<path style="fill:#FFFFFF;" d="M663.771,1277.269h-13.775v-6.74c0-23.353-18.999-42.352-42.347-42.352
					c-23.353,0-42.352,18.999-42.352,42.352v6.74h-13.775v-6.74c0-30.949,25.178-56.127,56.127-56.127
					c30.944,0,56.122,25.178,56.122,56.127V1277.269z"/>
			</g>
		</g>
		<g id="cloud_2_">
			<path style="fill:#FFFFFF;" d="M1449.201,942.852c0.717-5.296,1.217-10.66,1.217-16.153c0-66.051-53.545-119.596-119.596-119.596
				c-49.552,0-92.063,30.135-110.209,73.078c-14.767-13.149-34.167-21.205-55.496-21.205c-46.156,0-83.573,37.416-83.573,83.573
				h-15.596c-44.381,0-80.691,36.31-80.691,80.69v0.001c0,44.379,36.31,80.69,80.691,80.69h377.297
				c44.379,0,80.689-36.311,80.689-80.69v-0.001C1523.936,980.869,1490.819,945.936,1449.201,942.852z"/>
			<g>
				<polygon style="fill:#66B8FF;" points="1253.768,1094.639 1211.662,1047.484 1169.557,1094.639 1191.95,1094.639 
					1191.95,1146.097 1231.376,1146.097 1231.376,1094.639 				"/>
				<polygon style="fill:#66B8FF;" points="1247.36,1107.18 1289.466,1154.335 1331.572,1107.18 1309.178,1107.18 
					1309.178,1055.722 1269.752,1055.722 1269.752,1107.18 				"/>
			</g>
		</g>
	</g>
</g>
<g id="element">
	
		<ellipse transform="matrix(0.2298 -0.9732 0.9732 0.2298 790.1714 2660.7058)" style="fill:#FFFFFF;" cx="2076.058" cy="831.141" rx="15.581" ry="15.581"/>
	
		<ellipse transform="matrix(0.2282 -0.9736 0.9736 0.2282 -237.7132 1405.3672)" style="fill:#FFFFFF;" cx="767.596" cy="852.624" rx="15.581" ry="15.581"/>
	
		<ellipse transform="matrix(0.2282 -0.9736 0.9736 0.2282 -1134.1619 1930.9137)" style="fill:#FFFFFF;" cx="650.866" cy="1680.843" rx="15.581" ry="15.581"/>
	<g>
		<path style="fill:#FFFFFF;" d="M1697.747,1019.92L1697.747,1019.92c-2.85,0-5.161-2.311-5.161-5.161v-55.251
			c0-2.85,2.311-5.161,5.161-5.161l0,0c2.85,0,5.161,2.311,5.161,5.161v55.251C1702.908,1017.61,1700.597,1019.92,1697.747,1019.92z
			"/>
		<path style="fill:#FFFFFF;" d="M1664.961,987.134L1664.961,987.134c0-2.85,2.311-5.161,5.161-5.161h55.251
			c2.85,0,5.161,2.31,5.161,5.161l0,0c0,2.85-2.31,5.161-5.161,5.161h-55.251C1667.271,992.295,1664.961,989.984,1664.961,987.134z"
			/>
	</g>
	<g>
		<path style="fill:#FFFFFF;" d="M1731.445,1686.366L1731.445,1686.366c-2.85,0-5.161-2.311-5.161-5.161v-55.251
			c0-2.85,2.311-5.161,5.161-5.161l0,0c2.85,0,5.161,2.311,5.161,5.161v55.251
			C1736.605,1684.056,1734.295,1686.366,1731.445,1686.366z"/>
		<path style="fill:#FFFFFF;" d="M1698.658,1653.58L1698.658,1653.58c0-2.85,2.311-5.161,5.161-5.161h55.251
			c2.85,0,5.161,2.311,5.161,5.161l0,0c0,2.85-2.311,5.161-5.161,5.161h-55.251
			C1700.969,1658.741,1698.658,1656.43,1698.658,1653.58z"/>
	</g>
	<g id="_x2B__4_">
		<path style="fill:#FFFFFF;" d="M312.174,1155.613L312.174,1155.613c-3.347,0-6.06-2.713-6.06-6.06v-64.879
			c0-3.347,2.713-6.06,6.06-6.06l0,0c3.347,0,6.06,2.713,6.06,6.06v64.879C318.234,1152.9,315.521,1155.613,312.174,1155.613z"/>
		<path style="fill:#FFFFFF;" d="M273.675,1117.114L273.675,1117.114c0-3.347,2.713-6.06,6.06-6.06h64.878
			c3.347,0,6.06,2.713,6.06,6.06l0,0c0,3.347-2.713,6.06-6.06,6.06h-64.878C276.388,1123.174,273.675,1120.461,273.675,1117.114z"/>
	</g>
	<g id="_x2B__1_">
		<path style="fill:#2E76E6;" d="M980.601,331.952L980.601,331.952c-2.89,0-5.234-2.343-5.234-5.234v-56.031
			c0-2.891,2.343-5.234,5.234-5.234l0,0c2.891,0,5.234,2.343,5.234,5.234v56.031C985.835,329.609,983.492,331.952,980.601,331.952z"
			/>
		<path style="fill:#2E76E6;" d="M947.352,298.703L947.352,298.703c0-2.891,2.343-5.234,5.234-5.234h56.031
			c2.891,0,5.234,2.343,5.234,5.234l0,0c0,2.89-2.343,5.234-5.234,5.234h-56.031C949.695,303.936,947.352,301.593,947.352,298.703z"
			/>
	</g>
	<g>
		<path style="fill:#AAE0FF;" d="M1130.374,310.47L1130.374,310.47c-2.85,0-5.161-2.311-5.161-5.161v-55.251
			c0-2.85,2.311-5.161,5.161-5.161l0,0c2.85,0,5.161,2.311,5.161,5.161v55.251C1135.535,308.159,1133.224,310.47,1130.374,310.47z"
			/>
		<path style="fill:#AAE0FF;" d="M1097.588,277.683L1097.588,277.683c0-2.85,2.311-5.161,5.161-5.161H1158
			c2.85,0,5.161,2.311,5.161,5.161l0,0c0,2.85-2.311,5.161-5.161,5.161h-55.251C1099.899,282.844,1097.588,280.534,1097.588,277.683
			z"/>
	</g>
	<circle style="fill:#AAE0FF;" cx="1830.517" cy="495.008" r="29.784"/>
	<circle style="fill:#AAE0FF;" cx="1048.391" cy="606.151" r="29.784"/>
	<circle style="fill:#AAE0FF;" cx="652.413" cy="1599.772" r="29.784"/>
</g>
<g id="hand">
	<g>
		<defs>
			<rect id="SVGID_1_" width="2500" height="2500"/>
		</defs>
		<clipPath id="SVGID_00000172436821433735604840000003389204238707996320_">
			<use xlink:href="#SVGID_1_"  style="overflow:visible;"/>
		</clipPath>
		<g style="clip-path:url(#SVGID_00000172436821433735604840000003389204238707996320_);">
			<g>
				<path style="fill:#FFA04D;" d="M995.912,1731.813l-187.48,246.495c-23.257,96.025,29.391,182.386,128.538,205.125
					l435.92-199.822L995.912,1731.813z"/>
				<path style="fill:#FFA04D;" d="M853.459,1885.479L-156.34,2409.394c-68.591,32.786,183.83,379.915,445.328,269.026
					l661.439-501.969C1080.347,2133.155,983.379,1842.182,853.459,1885.479z"/>
				<path style="fill:#FFA04D;" d="M1015.042,1776.293c0,0,542.857-409.728,590.823-329.995
					c54.934,91.315-518.392,443.888-518.392,443.888L1015.042,1776.293z"/>
				<g>
					<g>
						<g>
							<path style="fill:#FFFFFF;" d="M1041.596,2206.279l391.011-2.361c24.4-0.147,44.136-20.955,44.092-46.45l-1.467-845.346
								c-0.043-24.586-19.467-44.557-43.395-44.629l-383.414-1.167c-24.118-0.073-43.84,19.869-44.042,44.567l-6.95,849.254
								C997.22,2185.762,1016.999,2206.427,1041.596,2206.279z"/>
							<path style="fill:#33201B;" d="M1036.198,2200.13c1.624,0.204,3.286,0.301,4.94,0.289l390.891-2.77
								c20.967-0.149,38.104-18.39,38.068-40.644l-1.351-844.418c-0.034-21.463-16.901-38.979-37.466-39.063l-383.389-1.562
								c-0.599-0.002-1.205,0.01-1.802,0.036c-9.648,0.419-18.664,4.535-25.403,11.58c-6.888,7.2-10.719,16.742-10.801,26.884
								l-6.858,850.114C1002.866,2180.725,1017.075,2197.729,1036.198,2200.13z"/>
							<polygon style="fill:#FFFFFF;" points="1023.399,1316.616 1016.805,2163.771 1457.161,2161.302 1456.037,1316.616 							"/>
						</g>
						<g>
							<g>
								
									<rect x="1323.346" y="1770.886" transform="matrix(-1 -1.224647e-16 1.224647e-16 -1 2704.4539 3599.5349)" style="fill:none;stroke:#007880;stroke-width:4.9361;stroke-miterlimit:10;" width="57.763" height="57.763"/>
								
									<rect x="1247.214" y="1770.886" transform="matrix(-1 -1.224647e-16 1.224647e-16 -1 2552.1917 3599.5349)" style="fill:none;stroke:#007880;stroke-width:4.9361;stroke-miterlimit:10;" width="57.763" height="57.763"/>
								
									<rect x="1171.083" y="1770.886" transform="matrix(-1 -1.224647e-16 1.224647e-16 -1 2399.9292 3599.5349)" style="fill:none;stroke:#007880;stroke-width:4.9361;stroke-miterlimit:10;" width="57.763" height="57.763"/>
								
									<rect x="1094.952" y="1770.886" transform="matrix(-1 -1.224647e-16 1.224647e-16 -1 2247.667 3599.5349)" style="fill:none;stroke:#007880;stroke-width:4.9361;stroke-miterlimit:10;" width="57.763" height="57.763"/>
								<circle style="fill:#4D4D4D;" cx="1352.836" cy="1800.931" r="11.964"/>
								<circle style="fill:#4D4D4D;" cx="1276.544" cy="1800.931" r="11.964"/>
								<circle style="fill:#4D4D4D;" cx="1200.251" cy="1800.931" r="11.964"/>
								<circle style="fill:#4D4D4D;" cx="1122.596" cy="1800.931" r="11.964"/>
							</g>
							<g>
								<g>
									<path style="fill:#FFFFFF;" d="M1213.717,1517.932v-11.568c0-5.253-4.256-9.511-9.509-9.511H1102.96
										c-5.253,0-9.512,4.259-9.512,9.511v204.479h261.899v-192.911H1213.717z"/>
									<path style="fill:#BFE1FF;" d="M1214.559,1517.932v-11.568c0-5.253-4.256-9.511-9.509-9.511h-101.248
										c-5.253,0-9.511,4.259-9.511,9.511v204.479h261.899v-192.911H1214.559z"/>
									<path style="fill:#1A5280;" d="M1216.922,1517.856v-11.568c0-5.253-4.256-9.512-9.509-9.512h-101.248
										c-5.253,0-9.512,4.259-9.512,9.512v204.479h261.899v-192.911H1216.922z"/>
									<polygon style="fill:#FFFFFF;" points="1103.063,1525.925 1103.063,1710.844 1345.674,1710.844 1345.674,1525.017 
																			"/>
									<polygon style="fill:#1480CC;" points="1114.303,1525.925 1114.303,1710.844 1358.994,1710.844 1358.994,1525.017 
																			"/>
									<path style="fill:#BFE1FF;" d="M1368.691,1517.934h-241.265c-4.952,0-8.599,3.329-9.311,7.932v184.978h263.317l0-180.285
										C1381.492,1523.915,1375.456,1517.934,1368.691,1517.934z"/>
									<g>
										<g>
											
												<rect x="1158.143" y="1467.371" transform="matrix(1 -0.0028 0.0028 1 -4.2934 3.4983)" style="fill:#CCE7FF;" width="178.064" height="135.324"/>
											
												<rect x="1162.603" y="1471.787" transform="matrix(1 -0.0028 0.0028 1 -4.2905 3.498)" style="fill:#3397FF;" width="168.956" height="124.405"/>
											<polygon style="fill:#E3EEFF;" points="1177.019,1586.403 1285.595,1586.099 1226.229,1529.146 											"/>
											<polygon style="fill:#E3EEFF;" points="1226.389,1586.265 1317.617,1586.009 1268.115,1538.939 											"/>
											
												<ellipse transform="matrix(0.7071 -0.7071 0.7071 0.7071 -703.225 1335.2192)" style="fill:#E3EEFF;" cx="1260.14" cy="1516.477" rx="12.574" ry="12.574"/>
										</g>
									</g>
									<g>
										<g>
											
												<rect x="1198.801" y="1436.28" transform="matrix(1 -0.0032 0.0032 1 -4.826 4.1138)" style="fill:#CCE7FF;" width="165.079" height="143.56"/>
											
												<rect x="1203.392" y="1440.965" transform="matrix(1 -0.0032 0.0032 1 -4.8509 4.1378)" style="fill:#198AFF;" width="155.705" height="131.976"/>
										</g>
										<g>
											<rect x="1218.473" y="1459.435" style="fill:#CCE5FF;" width="62.012" height="5.448"/>
											<rect x="1218.473" y="1474.147" style="fill:#CCE5FF;" width="126.164" height="5.448"/>
											<rect x="1218.473" y="1489.127" style="fill:#CCE5FF;" width="126.164" height="5.448"/>
											<rect x="1218.473" y="1505.072" style="fill:#CCE5FF;" width="126.164" height="5.448"/>
										</g>
									</g>
									<path style="fill:#66B8FF;" d="M1382.611,1530.586v180.271h-261.632v-185.014c0.737-4.584,4.373-7.904,9.274-7.904h239.659
										C1376.657,1517.938,1382.664,1523.893,1382.611,1530.586z"/>
									<rect x="1094.26" y="1708.367" style="fill:#BFE1FF;" width="26.394" height="2.477"/>
								</g>
								<g>
									
										<ellipse transform="matrix(0.1602 -0.9871 0.9871 0.1602 -532.8253 2573.3674)" style="fill:#FFFFFF;" cx="1245.903" cy="1599.814" rx="39.4" ry="39.4"/>
									<g>
										<g>
											<path style="fill:#275880;" d="M1245.953,1598.391c3.452,0,6.64-1.682,8.676-4.249c1.504-1.859,2.391-4.25,2.391-6.906
												c0-6.108-4.958-11.155-11.067-11.155c-6.197,0-11.155,5.047-11.155,11.155c0,2.656,0.884,5.047,2.391,6.906
												C1239.225,1596.709,1242.411,1598.391,1245.953,1598.391z"/>
										</g>
										<path style="fill:#275880;" d="M1265.555,1618.268c0,7.04-39.312,7.04-39.312,0l0.013-8.204
											c1.553-11.215,36.104-11.686,39.307,0L1265.555,1618.268z"/>
									</g>
								</g>
								<g>
									<rect x="1181.209" y="1659.613" style="fill:#FFFFFF;" width="129.388" height="7.188"/>
									<rect x="1196.385" y="1674.542" style="fill:#FFFFFF;" width="99.036" height="7.188"/>
								</g>
							</g>
						</g>
						<g>
							<g>
								
									<rect x="1291.244" y="1883.145" transform="matrix(-1 -1.224647e-16 1.224647e-16 -1 2671.8242 3819.9634)" style="fill:#AAE0FF;" width="89.337" height="53.674"/>
								
									<rect x="1189.97" y="1883.145" transform="matrix(-1 -1.224647e-16 1.224647e-16 -1 2469.2766 3819.9634)" style="fill:#AAE0FF;" width="89.337" height="53.674"/>
								
									<rect x="1088.696" y="1883.145" transform="matrix(-1 -1.224647e-16 1.224647e-16 -1 2266.729 3819.9634)" style="fill:#AAE0FF;" width="89.337" height="53.674"/>
							</g>
							<g>
								
									<rect x="1291.244" y="1946.304" transform="matrix(-1 -1.224647e-16 1.224647e-16 -1 2671.8242 3946.282)" style="fill:#AAE0FF;" width="89.337" height="53.674"/>
								
									<rect x="1189.97" y="1946.304" transform="matrix(-1 -1.224647e-16 1.224647e-16 -1 2469.2766 3946.282)" style="fill:#AAE0FF;" width="89.337" height="53.674"/>
								
									<rect x="1088.696" y="1946.304" transform="matrix(-1 -1.224647e-16 1.224647e-16 -1 2266.729 3946.282)" style="fill:#AAE0FF;" width="89.337" height="53.674"/>
							</g>
							<g>
								
									<rect x="1291.244" y="2008.769" transform="matrix(-1 -1.224647e-16 1.224647e-16 -1 2671.8242 4071.2124)" style="fill:#AAE0FF;" width="89.337" height="53.674"/>
								
									<rect x="1189.97" y="2008.769" transform="matrix(-1 -1.224647e-16 1.224647e-16 -1 2469.2766 4071.2124)" style="fill:#AAE0FF;" width="89.337" height="53.674"/>
								
									<rect x="1189.97" y="2071.929" transform="matrix(-1 -1.224647e-16 1.224647e-16 -1 2469.2766 4197.5308)" style="fill:#AAE0FF;" width="89.337" height="53.674"/>
								
									<rect x="1088.696" y="2008.769" transform="matrix(-1 -1.224647e-16 1.224647e-16 -1 2266.729 4071.2124)" style="fill:#AAE0FF;" width="89.337" height="53.674"/>
							</g>
						</g>
					</g>
				</g>
				<path style="fill:#FFA04D;" d="M1476.698,1615.136c0,0,115.836,46.247,42.521,139.364c-73.315,93.117-111.124,0-68.259-75.354
					C1466.793,1651.314,1476.698,1615.136,1476.698,1615.136z"/>
				<path style="fill:#FFA04D;" d="M1476.698,1720.102c0,0,115.836,46.247,42.521,139.364s-111.124,0-68.259-75.354
					C1466.793,1756.28,1476.698,1720.102,1476.698,1720.102z"/>
				<path style="fill:#FFA04D;" d="M1479.233,1904.729c0,0,90.371,36.08,33.173,108.727c-57.198,72.647-86.695,0-53.253-58.788
					C1471.505,1932.953,1479.233,1904.729,1479.233,1904.729z"/>
				<path style="fill:#FFA04D;" d="M818.139,1965.636c62.439-152.395,198.667-440.242,198.667-440.242s35.998-12.892,48.298,54.482
					c12.3,67.374-46.49,199.164-46.49,199.164s78.781,323.198-90.102,348.111C811.186,2144.459,779.819,2029.067,818.139,1965.636z"
					/>
			</g>
			<g>
				<g>
					<g>
						<path style="fill:#FFA04D;" d="M1453.063,2336.087c0,0-246.246-388.566-210.497-436.311
							c35.749-47.744,322.771,387.457,322.771,387.457L1453.063,2336.087z"/>
						<path style="fill:#FFA04D;" d="M1360.214,2401.92c23.119,36.438,260.014,198.772,260.014,198.772
							c192.401-98.875-140.112-278.066-140.112-278.066s70.539-139.177-1.085-152.75c-52.279-9.922-83.582,28.099-96.655,49.348
							c-1.798,2.899-3.242,5.49-4.364,7.604c-1.896,3.594-2.82,5.8-2.82,5.8S1337.085,2365.465,1360.214,2401.92z"/>
						<path style="fill:#FFA04D;" d="M1428.031,2354.855l24.775-19.181l169.453,267.627l230.634-143.422
							c0,0-70.515-311.791-106.992-351.128c-36.477-39.338-84.66-58.278-84.66-58.278c-43.756-17.926-59.204,3.443-78.76,0.531
							c-44.661-6.63-64.794,33.24-77.594,30.332c-14.603-3.323-33.427,0.379-49.35,8.134c-6.876,3.338-13.193,7.444-18.41,12.083
							l-0.041,0.049c-5.355,4.723-9.534,10.027-11.902,15.601l-69.853,24.729l22.178,64.974l-2.29,0.61l5.732,9.468
							L1428.031,2354.855z"/>
						<path style="fill:#CC6004;" d="M1416.421,2335.679c20.489,59.145,64.911,47.103,48.438,12.364l-83.156-127.716
							c-1.798,2.899-2.57,4.388-3.691,6.501C1402.577,2264.837,1416.421,2335.679,1416.421,2335.679z"/>
					</g>
					<path style="fill:#FFA04D;" d="M1634.239,2611.369c270.114,211.642,426.412,23.722,411.05-42.656l-216.546-164.805
						l-258.817,161.937L1634.239,2611.369z"/>
				</g>
			</g>
		</g>
	</g>
</g>
</svg>
